<?xml version="1.0" encoding="iso-8859-1"?>
<!-- Generator: Adobe Illustrator 19.0.0, SVG Export Plug-In . SVG Version: 6.00 Build 0)  -->
<svg version="1.1" id="Layer_1" xmlns="http://www.w3.org/2000/svg" xmlns:xlink="http://www.w3.org/1999/xlink" x="0px" y="0px"
	 viewBox="0 0 511.999 511.999" style="enable-background:new 0 0 511.999 511.999;" xml:space="preserve">
<g>
	<polygon style="fill:#EFC71D;" points="271.851,45.683 279.816,20.134 287.783,45.683 290.266,53.649 269.367,53.649 	"/>
	<polygon style="fill:#EFC71D;" points="287.783,466.315 279.816,491.865 271.851,466.315 269.367,458.35 290.266,458.35 	"/>
	<polygon style="fill:#EFC71D;" points="235.451,50.261 238.859,23.717 251.14,47.495 254.97,54.909 234.388,58.538 	"/>
	<polygon style="fill:#EFC71D;" points="324.183,461.738 320.774,488.282 308.493,464.504 304.664,457.09 325.245,453.461 	"/>
	<polygon style="fill:#EFC71D;" points="200.399,61.092 199.146,34.358 215.369,55.642 220.427,62.279 200.79,69.427 	"/>
	<polygon style="fill:#EFC71D;" points="359.235,450.907 360.488,477.641 344.264,456.357 339.205,449.72 358.844,442.573 	"/>
	<polygon style="fill:#EFC71D;" points="167.759,77.843 161.884,51.733 181.557,69.877 187.691,75.534 169.592,85.983 	"/>
	<polygon style="fill:#EFC71D;" points="391.873,434.156 397.75,460.266 378.076,442.122 371.943,436.465 390.042,426.016 	"/>
	<polygon style="fill:#EFC71D;" points="138.526,100.009 128.205,75.316 150.73,89.768 157.753,94.273 141.744,107.707 	"/>
	<polygon style="fill:#EFC71D;" points="421.107,411.991 431.428,436.683 408.903,422.231 401.88,417.726 417.89,404.292 	"/>
	<polygon style="fill:#EFC71D;" points="113.585,126.913 99.133,104.388 123.826,114.708 131.523,117.927 118.09,133.936 	"/>
	<polygon style="fill:#EFC71D;" points="446.048,385.086 460.5,407.611 435.808,397.291 428.109,394.072 441.543,378.063 	"/>
	<polygon style="fill:#EFC71D;" points="93.695,157.739 75.55,138.067 101.66,143.943 109.801,145.775 99.351,163.874 	"/>
	<polygon style="fill:#EFC71D;" points="465.939,354.259 484.082,373.932 457.973,368.056 449.833,366.224 460.282,348.125 	"/>
	<polygon style="fill:#EFC71D;" points="480.173,320.447 501.458,336.671 474.725,335.417 466.39,335.026 473.537,315.388 	"/>
	<polygon style="fill:#EFC71D;" points="474.725,176.582 501.458,175.328 480.173,191.552 473.537,196.611 466.39,176.973 	"/>
	<polygon style="fill:#EFC71D;" points="101.66,368.056 75.55,373.932 93.695,354.259 99.351,348.125 109.801,366.224 	"/>
	<polygon style="fill:#EFC71D;" points="457.973,143.943 484.082,138.067 465.939,157.739 460.282,163.874 449.833,145.775 	"/>
	<polygon style="fill:#EFC71D;" points="123.826,397.291 99.133,407.611 113.585,385.086 118.09,378.063 131.523,394.072 	"/>
	<polygon style="fill:#EFC71D;" points="435.808,114.708 460.5,104.388 446.048,126.913 441.543,133.936 428.109,117.927 	"/>
	<polygon style="fill:#EFC71D;" points="150.73,422.231 128.205,436.683 138.526,411.991 141.744,404.292 157.753,417.726 	"/>
	<polygon style="fill:#EFC71D;" points="408.903,89.768 431.428,75.316 421.107,100.009 417.89,107.707 401.88,94.273 	"/>
	<polygon style="fill:#EFC71D;" points="181.557,442.122 161.884,460.266 167.759,434.156 169.592,426.016 187.691,436.465 	"/>
	<polygon style="fill:#EFC71D;" points="378.076,69.877 397.75,51.733 391.873,77.843 390.042,85.983 371.943,75.534 	"/>
	<polygon style="fill:#EFC71D;" points="215.369,456.357 199.146,477.641 200.399,450.907 200.79,442.573 220.427,449.72 	"/>
	<polygon style="fill:#EFC71D;" points="344.264,55.642 360.488,34.358 359.235,61.092 358.844,69.427 339.205,62.279 	"/>
	<polygon style="fill:#EFC71D;" points="251.14,464.504 238.859,488.282 235.451,461.738 234.388,453.461 254.97,457.09 	"/>
	<polygon style="fill:#EFC71D;" points="308.493,47.495 320.774,23.717 324.183,50.261 325.245,58.538 304.664,54.909 	"/>
</g>
<path style="fill:#FFD41D;" d="M481.846,301.462c-20.714,92.401-103.237,161.447-201.889,161.447
	c-114.271-0.001-206.909-92.639-206.909-206.91S165.686,49.091,279.957,49.091c98.653,0,181.176,69.046,201.889,161.447"/>
<path style="fill:#EFC71D;" d="M367.563,425.294c-114.27,0-206.909-92.639-206.909-206.909c0-68.11,32.915-128.529,83.702-166.232
	C147.051,69.03,73.049,153.87,73.049,255.999c0,114.271,92.639,206.909,206.909,206.909c46.16,0,88.788-15.119,123.206-40.672
	C391.596,424.244,379.702,425.294,367.563,425.294z"/>
<g>
	<path style="fill:#CC722E;" d="M73.049,255.999L73.049,255.999v-34.376c0-40.344-32.705-73.049-73.049-73.049l0,0v34.376
		C0,223.294,32.705,255.999,73.049,255.999z"/>
	<path style="fill:#CC722E;" d="M0,363.423L0,363.423v-34.376c0-40.342,32.705-73.048,73.049-73.048l0,0v34.376
		C73.049,330.719,40.344,363.423,0,363.423z"/>
	<path style="fill:#CC722E;" d="M258.73,319.864c-11.285,14.232-27.314,24.858-46.404,29.184c-1.202,0.272-2.393,0.512-3.594,0.731
		c-79.851,14.482-106.684-103.8-28.39-125.189c1.17-0.324,2.351-0.616,3.553-0.888c19.09-4.326,38.149-1.661,54.471,6.311"/>
</g>
<path style="fill:#EFC71D;" d="M449.121,301.46h40.148c12.553,0,22.73-10.176,22.73-22.73l0,0c0-12.553-10.176-22.73-22.73-22.73
	h-14.026h14.026c12.553,0,22.73-10.176,22.73-22.73l0,0c0-12.553-10.176-22.73-22.73-22.73h-40.148"/>
<g>
	<path style="fill:#4D4D4D;" d="M406.872,192.11c-4.328,0-7.837-3.509-7.837-7.837v-15.386c0-4.328,3.509-7.837,7.837-7.837
		s7.837,3.509,7.837,7.837v15.386C414.708,188.601,411.2,192.11,406.872,192.11z"/>
	<path style="fill:#4D4D4D;" d="M434.245,192.11c-4.328,0-7.837-3.509-7.837-7.837v-15.386c0-4.328,3.509-7.837,7.837-7.837
		c4.328,0,7.837,3.509,7.837,7.837v15.386C442.082,188.601,438.573,192.11,434.245,192.11z"/>
</g>
<g>
	<path style="fill:#B25719;" d="M169.918,281.635c-3.628,0-6.884-2.533-7.661-6.224c-0.891-4.235,1.819-8.392,6.054-9.283
		l59.556-12.539c4.231-0.889,8.391,1.818,9.283,6.054c0.891,4.235-1.819,8.392-6.054,9.283l-59.556,12.539
		C170.997,281.58,170.453,281.635,169.918,281.635z"/>
	<path style="fill:#B25719;" d="M193.436,317.683c-3.195,0-6.195-1.968-7.358-5.141c-1.49-4.064,0.597-8.566,4.659-10.056
		l47.018-17.24c4.063-1.49,8.565,0.597,10.056,4.659c1.49,4.064-0.597,8.566-4.659,10.056l-47.018,17.24
		C195.243,317.528,194.331,317.683,193.436,317.683z"/>
</g>
<g>
</g>
<g>
</g>
<g>
</g>
<g>
</g>
<g>
</g>
<g>
</g>
<g>
</g>
<g>
</g>
<g>
</g>
<g>
</g>
<g>
</g>
<g>
</g>
<g>
</g>
<g>
</g>
<g>
</g>
</svg>
